<svg xmlns="http://www.w3.org/2000/svg" viewBox="0 0 337.66 45.45"><defs><style>.cls-1{fill:#4b4846}</style></defs><g id="Layer_2" data-name="Layer 2"><g id="Layer_1-2" data-name="Layer 1"><path class="cls-1" d="M82 8l4.81 23.11L92.3 8h5.94L104 31.19 108.6 8h5.23l-6.44 30.15h-6l-6.11-24-6.07 24h-6.1L76.67 8zM138 28.56h-17.25a6.91 6.91 0 0 0 2.1 4.33 6.06 6.06 0 0 0 4.33 1.7 6.28 6.28 0 0 0 3.42-.85 5.77 5.77 0 0 0 2.13-2.55h5.05a9.93 9.93 0 0 1-3.94 5.48 11.65 11.65 0 0 1-6.82 2 11.37 11.37 0 0 1-5.85-1.5 10.55 10.55 0 0 1-4-4.09 11.76 11.76 0 0 1-1.44-5.82 11.81 11.81 0 0 1 1.44-5.81 10.53 10.53 0 0 1 4-4.11 11.37 11.37 0 0 1 5.85-1.5 10.76 10.76 0 0 1 5.98 1.63 10.46 10.46 0 0 1 3.81 4.53 14.4 14.4 0 0 1 1.19 6.56zM133 25a5.83 5.83 0 0 0-2-3.91 6.13 6.13 0 0 0-4-1.39 5.89 5.89 0 0 0-4 1.45 6.34 6.34 0 0 0-2.13 3.85zM148.71 38.68a8.59 8.59 0 0 1-4-.91 6.66 6.66 0 0 1-2.63-2.43 6.29 6.29 0 0 1-.91-3.26 5.2 5.2 0 0 1 2.55-4.73 20.78 20.78 0 0 1 7.42-2.35 10.56 10.56 0 0 0 3.24-.91 1.78 1.78 0 0 0 .85-1.64 2.57 2.57 0 0 0-1.1-2.21 5 5 0 0 0-2.95-.79 5.55 5.55 0 0 0-3.66 1.16A4.2 4.2 0 0 0 146 23.7h-4.33a7.54 7.54 0 0 1 1.21-4 8.09 8.09 0 0 1 3.3-2.88 11 11 0 0 1 4.92-1.05 10.47 10.47 0 0 1 6.59 1.86c1.6 1.24 2.39 3.38 2.39 6.4v14.12h-4.49v-2.63a6.77 6.77 0 0 1-2.71 2.31 9.51 9.51 0 0 1-4.17.85zm1.58-10.28a8.53 8.53 0 0 0-3.18 1.41 2.59 2.59 0 0 0-.87 2 2.82 2.82 0 0 0 1 2.31 4.31 4.31 0 0 0 2.76.84 5.91 5.91 0 0 0 4-1.18 4.64 4.64 0 0 0 1.43-3.78v-3.2a19.21 19.21 0 0 1-2.55.89c-.97.31-1.88.52-2.59.71zM170.48 8v30.15h-4.93V8zM177.32 20.06h-3.52v-3.68h3.52v-4.53l4.94-3.28v7.81h5v3.68h-5v9.55a7.27 7.27 0 0 0 .73 3.66 2.81 2.81 0 0 0 2.67 1.24 15 15 0 0 0 1.58-.16v4a12.6 12.6 0 0 1-2.84.25 6.7 6.7 0 0 1-5.3-2c-1.19-1.34-1.78-3.49-1.78-6.43zM197.07 8v11.09c1.24-2.16 3.31-3.24 6.19-3.24a6.74 6.74 0 0 1 5.55 2.23 9.74 9.74 0 0 1 1.82 6.31v13.76h-4.94V25.28a6.38 6.38 0 0 0-1.09-4.09 3.8 3.8 0 0 0-3.12-1.33 4.05 4.05 0 0 0-3.21 1.35 6 6 0 0 0-1.2 4.07v12.87h-4.94V8zM218.24 29a7.54 7.54 0 0 0 2.69 4.93 8.58 8.58 0 0 0 5.32 1.58 9.53 9.53 0 0 0 4.94-1.29 4.35 4.35 0 0 0 2.18-4 4.36 4.36 0 0 0-1.7-3.64 12.31 12.31 0 0 0-4.77-2.07l-3.52-.81q-8.06-1.82-8.06-8a6.86 6.86 0 0 1 1.48-4.45 8.91 8.91 0 0 1 3.81-2.73 13.3 13.3 0 0 1 4.91-.91 11.34 11.34 0 0 1 7.17 2.26 9.54 9.54 0 0 1 3.56 6.13h-3.61a6.54 6.54 0 0 0-2.54-3.92 8.28 8.28 0 0 0-4.86-1.34 8.16 8.16 0 0 0-4.45 1.2 3.94 3.94 0 0 0-1.9 3.58q0 3.72 5.38 5l3.24.73a18.46 18.46 0 0 1 6.84 2.85 6.54 6.54 0 0 1 2.59 5.64 8 8 0 0 1-1.46 4.82 9 9 0 0 1-3.91 3.06 13.89 13.89 0 0 1-5.4 1 11.76 11.76 0 0 1-8-2.65 10.46 10.46 0 0 1-3.52-7zM243.17 19.05h-3.69v-2.67h3.69v-4.33l3.36-2.51v6.84h5.18v2.67h-5.18v12.42a5.09 5.09 0 0 0 .77 3.14 3 3 0 0 0 2.5 1 16.06 16.06 0 0 0 1.87-.12v2.83a11.31 11.31 0 0 1-2.35.21 6.15 6.15 0 0 1-4.57-1.6c-1.06-1.07-1.58-2.77-1.58-5.12zM254.34 27.27a11.67 11.67 0 0 1 1.45-5.83 10.84 10.84 0 0 1 4-4.09 12.16 12.16 0 0 1 11.7 0 10.74 10.74 0 0 1 4 4.09 11.68 11.68 0 0 1 1.51 5.83 11.67 11.67 0 0 1-1.46 5.82 10.74 10.74 0 0 1-4 4.09 12.16 12.16 0 0 1-11.7 0 10.84 10.84 0 0 1-4-4.09 11.66 11.66 0 0 1-1.5-5.82zm3.48 0a9.42 9.42 0 0 0 1 4.33 7.69 7.69 0 0 0 13.72 0 10 10 0 0 0 0-8.67 7.69 7.69 0 0 0-13.72 0 9.43 9.43 0 0 0-1 4.34zM285.26 16.38v2.91a6.37 6.37 0 0 1 2.65-2.57 8.07 8.07 0 0 1 3.78-.87 7.18 7.18 0 0 1 5.73 2.27 9.36 9.36 0 0 1 2 6.31v13.72h-3.32v-13a7.15 7.15 0 0 0-1.4-4.84 4.86 4.86 0 0 0-3.86-1.59 5.29 5.29 0 0 0-4 1.61 6.83 6.83 0 0 0-1.51 4.82v13h-3.32V16.38zM326 28h-18.7a8.92 8.92 0 0 0 1.15 4 7.52 7.52 0 0 0 2.78 2.79 7.61 7.61 0 0 0 3.92 1 7 7 0 0 0 7-4.25h3.56a9.69 9.69 0 0 1-3.88 5.25 11.63 11.63 0 0 1-6.68 1.92 11.42 11.42 0 0 1-5.85-1.5 10.55 10.55 0 0 1-4-4.09 11.76 11.76 0 0 1-1.44-5.82 11.81 11.81 0 0 1 1.44-5.81 10.52 10.52 0 0 1 4-4.11 11.43 11.43 0 0 1 5.83-1.5 10.72 10.72 0 0 1 5.81 1.56 10.25 10.25 0 0 1 3.82 4.31A13.42 13.42 0 0 1 326 28zm-3.64-2.67a7.93 7.93 0 0 0-2.41-4.81 6.89 6.89 0 0 0-4.95-1.88 7.35 7.35 0 0 0-5 1.87 7.94 7.94 0 0 0-2.59 4.77zM0 0l22.83 45.34.06.11 9.43-19.6L19.33 0zm1.15.71h17.74l12.65 25.12-8.67 18zM41.54 0H22.21L45 45.34l.06.11 9.43-19.6zM23.36.71H41.1l12.65 25.12-8.67 18zM44.84 0l11.35 22.53.05.11L67.1 0H44.84zM331.38 17.24h-1.2v-.51h3v.51H332v3.46h-.6zm2.48-.51h.79l1.11 3.19 1.11-3.19h.79v4h-.59v-3l-1.08 3h-.5l-1.08-3v3h-.55z"/></g></g></svg>